<?xml version="1.0" encoding="UTF-8" standalone="no"?>
<svg
   width="2200"
   height="500"
   version="1.1"
   id="svg36"
   sodipodi:docname="logo.svg"
   inkscape:version="1.1 (1:1.1+202105261517+ce6663b3b7)"
   xmlns:inkscape="http://www.inkscape.org/namespaces/inkscape"
   xmlns:sodipodi="http://sodipodi.sourceforge.net/DTD/sodipodi-0.dtd"
   xmlns="http://www.w3.org/2000/svg"
   xmlns:svg="http://www.w3.org/2000/svg">
  <defs
     id="defs40">
    <clipPath
       clipPathUnits="userSpaceOnUse"
       id="clipPath2748">
      <rect
         style="fill:none;stroke:#ffffff;stroke-width:2.07496"
         id="rect2750"
         width="1069.5654"
         height="116.03343"
         x="81.150749"
         y="641.81818" />
    </clipPath>
  </defs>
  <sodipodi:namedview
     id="namedview38"
     pagecolor="#505050"
     bordercolor="#eeeeee"
     borderopacity="1"
     inkscape:pageshadow="0"
     inkscape:pageopacity="0"
     inkscape:pagecheckerboard="0"
     showgrid="false"
     inkscape:zoom="0.39483627"
     inkscape:cx="1028.2743"
     inkscape:cy="371.03987"
     inkscape:window-width="1920"
     inkscape:window-height="1027"
     inkscape:window-x="0"
     inkscape:window-y="27"
     inkscape:window-maximized="1"
     inkscape:current-layer="svg36"
     height="793px" />
  <path
     style="fill:#ffffff;stroke:none;stroke-width:1.07557"
     d="m 188.86518,23.783778 -50.55209,115.086632 37.64521,-18.55045 15.05802,-6.14585 13.98249,6.67826 36.5696,18.01804 -50.55209,-115.086632 h -2.15114 m -2.15113,94.650692 c 0,71.68176 -1.07561,143.36997 -1.07561,215.1152 v 52.70323 c 0,2.21031 -1.11535,18.00837 4.74973,13.88999 3.18158,-2.23505 1.70375,-10.54065 1.70375,-13.88999 v -40.87189 c 0,-55.56964 -0.26676,-111.14573 0,-166.71428 0.0721,-15.01074 1.07451,-30.08817 1.07451,-45.1742 0,-6.4427 1.7682,-14.40303 -6.45348,-15.05806 M 46.88757,312.03816 c 0,70.78796 64.59267,135.51504 135.52256,135.52257 0,5.4037 -2.10269,18.47732 5.48974,19.85299 12.13795,2.1974 4.40559,-16.33263 10.80741,-19.20441 6.86222,-3.07938 17.11454,-2.38671 24.5748,-4.12806 13.93193,-3.25362 27.52505,-9.2306 39.79626,-16.53054 40.4858,-24.08537 66.81483,-68.3991 68.83694,-115.51255 5.7489,0 18.68596,2.17374 19.08388,-6.4653 0.53564,-11.61191 -16.11105,-2.04251 -19.51096,-9.82753 -4.01724,-9.20155 -2.9051,-23.06143 -6.05439,-33.18367 -9.7028,-31.19064 -29.75042,-58.32204 -56.97759,-76.3616 -11.63232,-7.70757 -24.29831,-13.819 -37.64513,-17.91479 -4.73256,-1.45204 -13.49098,-2.41252 -13.49098,5.00357 0,6.09314 7.85818,7.83128 12.41537,9.2349 13.98359,4.30768 27.17339,11.83564 38.72074,20.76077 28.9223,22.35478 49.47225,58.84476 49.47649,95.84673 -9.50479,0 -22.67742,-2.39208 -31.19165,2.15115 2.45122,-10.29757 1.47564,-22.86997 -5.73174,-31.14546 -2.92454,-3.35686 -8.13356,-5.07886 -10.37179,-8.87995 -2.18664,-3.71289 -0.53886,-8.65086 -1.80809,-12.67673 -2.90941,-9.2306 -11.60434,-9.68019 -19.73359,-9.68126 -0.15913,-7.65703 -2.06616,-16.9285 -10.76006,-18.93659 -4.26676,-0.98523 -8.77449,0.93897 -12.90257,-0.43669 -9.1779,-3.05894 -16.01322,-9.00257 -24.49625,0.12907 -9.48119,10.20506 -1.48325,19.5002 0.6174,29.99997 2.12958,10.64282 -9.9814,18.11269 -1.01642,29.91714 6.0522,7.96787 11.81945,3.01699 19.51739,4.12914 4.15497,0.60125 8.49706,3.93337 12.44007,0.64534 3.04071,-2.53513 7.39033,-13.5813 9.53073,-17.52435 3.11699,-5.74036 0.50225,-14.74078 -6.87076,-15.48185 -6.74714,-0.67761 -9.20055,10.43847 -17.25118,10.1459 v -2.15115 c 17.38774,-8.45402 2.61467,-16.56386 2.15114,-27.96497 5.52525,3.80539 7.84524,8.87996 12.5132,13.23066 5.48441,5.11114 13.24037,6.03506 15.01185,14.73431 2.42112,11.8948 -27.56809,41.22683 2.59107,40.85146 3.52792,-0.043 6.45669,-0.77011 9.68014,-2.13072 -0.54419,4.33027 -1.68,8.80037 1.08533,12.66491 7.46982,10.44169 22.44506,1.24229 24.72852,-8.3626 h 1.07561 c 0.46572,14.30301 20.94356,9.68019 31.19165,9.68019 0,47.8115 -33.94193,92.08974 -76.36587,111.52755 -14.97735,6.86325 -29.65471,7.39351 -45.17422,11.08811 -1.91988,-8.06252 2.42762,-22.95817 -2.18123,-29.64933 -2.875,-4.17538 -9.24994,-2.44048 -11.00316,1.74781 -3.41495,8.16039 0.20225,19.18289 -1.87363,27.90152 -15.94329,-4.71317 -31.6779,-4.90786 -47.32534,-12.35407 C 92.014438,402.31556 61.8037,358.83324 59.79453,312.03816 c 7.12028,0 29.648204,3.7957 31.753088,-5.42091 3.58491,-15.68943 -30.779698,0.16994 -31.286338,-12.88432 -1.50472,-38.73365 30.21614,-78.97417 60.84101,-98.46361 11.14732,-7.09342 24.40704,-9.34676 35.43058,-15.97554 4.98529,-2.99654 5.42091,-10.39436 -1.05946,-11.94856 -11.4075,-2.73735 -30.50439,9.6178 -39.74899,15.19466 -30.34086,18.30415 -52.7247,47.32534 -63.42777,81.09735 -3.2418,10.22658 -2.9675,21.05655 -5.7511,31.12824 -2.51902,9.11659 -19.36789,-0.78086 -19.20445,10.80417 0.12371,8.77132 13.83841,6.46852 19.54647,6.46852 m 83.89494,-73.13917 c -8.25718,0.002 -16.78435,0.29147 -19.73358,9.68018 -1.26492,4.02588 0.37753,8.966 -1.80802,12.67781 -2.45882,4.17646 -8.26581,6.06088 -11.381777,9.92542 -6.993362,8.67667 -8.676658,25.87943 -2.576015,35.46174 8.774562,13.78673 29.420232,8.82833 23.668042,-8.58848 3.21169,1.01857 6.28784,1.9597 9.68022,2.10706 2.107,0.0914 4.40339,0.13983 6.4534,-0.4227 21.7009,-5.94579 -4.90995,-28.83619 -2.84058,-40.4051 1.57253,-8.79067 9.66729,-9.52744 15.00753,-14.73431 4.70567,-4.58733 6.49323,-9.70708 12.5713,-13.23066 l 1.0756,4.30231 c -16.01643,8.50888 -3.1837,16.65206 0,26.8894 -6.33409,-2.02424 -8.9047,-9.32094 -14.26533,-11.06983 -6.17487,-2.01456 -10.83429,5.94793 -10.22339,11.06983 0.4582,3.83873 9.40272,21.55776 12.77464,22.82156 4.37972,1.64134 7.94636,-2.17803 12.17016,-1.90591 7.15901,0.46141 11.85284,2.89652 17.40498,-3.76559 9.51771,-11.42263 -2.28997,-18.84625 -1.03367,-29.43745 0.9153,-7.71725 6.66749,-12.27662 5.56076,-21.05547 -2.50178,-19.83039 -18.18912,-12.45732 -29.91716,-9.45323 -3.87425,0.99275 -7.88718,-0.69376 -11.83026,0.19789 -8.8165,1.99305 -10.59661,11.18815 -10.75685,18.93553 m -7.529,74.21474 11.83127,4.23993 20.43598,-2.08878 8.60461,-7.52903 -6.1534,15.05806 2.92666,13.9825 h -1.0756 c -3.40093,-5.22946 -4.38937,-10.44923 -7.08697,-15.70987 -2.77277,-5.408 -11.97112,-3.82475 -13.46832,1.7747 -1.9619,7.33543 3.33531,12.09056 5.61234,18.23747 1.54345,4.17 0.22154,8.6401 -0.11507,12.9069 11.00315,1.12722 22.96997,16.76394 25.81384,26.88941 -11.1107,-5.16492 -12.49392,-5.99311 -24.73824,-3.22673 2.30173,-4.67983 5.6898,-6.61157 10.75575,-7.52903 -0.99172,-18.11916 -25.55139,-12.78107 -31.096,0.002 -6.51581,15.02472 8.07539,14.59019 15.8551,20.00787 7.97215,5.55212 13.44363,15.15271 24.92105,11.70549 20.95759,-6.29427 7.85606,-27.67134 8.2357,-40.31904 0.37965,-12.68643 12.64232,-26.79583 -3.93336,-36.56959 2.85345,-5.01433 6.61905,-9.47152 8.36686,-15.05806 6.37713,-20.37571 -12.19274,-26.51617 -28.56193,-18.72793 -4.53674,2.15761 -6.45129,8.41746 -10.99775,11.19352 -7.85496,4.79599 -13.99323,-0.0344 -16.13252,10.76114 m 86.04608,9.68018 v 1.07558 c -7.93672,6.55994 -11.10859,16.99733 -8.28086,26.8894 1.01532,3.55262 3.90757,7.02673 4.01191,10.75576 0.37855,13.56517 -11.6023,28.34035 5.36063,38.71106 13.3759,8.17759 19.28832,-5.58655 29.06638,-10.71597 7.09127,-3.72042 15.53558,-1.79944 15.94752,-12.93702 0.63889,-17.2942 -28.25425,-26.4581 -33.1987,-7.52904 l 11.83136,5.37789 -2.15113,4.3023 h -1.07561 c -8.71429,-8.69711 -13.97497,-0.34849 -22.58711,2.15115 5.35961,-10.32445 14.40306,-25.79124 26.88938,-26.8894 -0.53667,-4.25068 -1.68863,-8.6799 -0.37322,-12.90584 1.97906,-6.35666 6.96334,-9.75655 6.0286,-17.16404 -0.74213,-5.87265 -9.49083,-8.16255 -13.2511,-3.6462 -4.47763,5.37787 -3.18041,11.727 -9.61344,16.50687 0.65073,-9.18328 7.65374,-18.44507 -3.22674,-24.73826 l 1.07553,-4.3023 c 13.06289,8.33248 26.17743,9.86087 40.87195,5.37788 -2.13828,-10.79233 -8.27655,-5.97053 -16.13261,-10.76114 -4.50883,-2.75025 -6.29427,-7.86138 -10.36207,-10.72457 -5.52744,-3.88929 -18.63007,-3.86884 -24.98995,-2.72766 -3.95814,0.70989 -4.72504,5.84575 -5.19829,9.1553 -1.3154,9.19941 2.22436,18.84195 9.35757,24.73825 m 37.64513,12.90691 c -7.0687,1.45741 -11.25699,9.18327 -7.18699,15.90455 4.60235,7.6011 14.88062,11.1107 20.09387,19.58946 12.47244,-4.36146 14.08793,-15.24951 7.52909,-25.81382 14.3815,-3.01807 21.34155,-15.90347 13.98249,-29.04055 -10.68159,4.11301 -45.30975,-3.27621 -34.41846,19.36036 m -135.52257,9.68019 c -4.20444,10.91924 -5.01649,22.36123 8.60461,25.81382 5.15627,-8.38519 15.4829,-12.02064 19.94439,-19.58946 3.94088,-6.68363 -0.23878,-13.97818 -7.0375,-15.90455 9.09723,-18.90862 -13.04242,-16.25626 -23.66264,-16.33154 -3.47093,-0.0237 -8.1421,-2.77822 -11.36884,-0.80453 -7.344007,4.48945 -1.700463,17.87392 2.96318,21.94176 3.05899,2.66741 6.68905,3.94735 10.5568,4.8745"
     id="path6"
     sodipodi:nodetypes="cccccccccsscsscscccccccccccccscccccccccccccccccccccccccccccccccscccccccccscccccccscsccccsccccscccccccccccccccccccccccccccccccsccccccccccscccccccsccccccccccccccc" />
  <text
     xml:space="preserve"
     style="font-style:normal;font-variant:normal;font-weight:normal;font-stretch:normal;font-size:182.005px;line-height:1.25;font-family:C059;-inkscape-font-specification:'C059, Normal';font-variant-ligatures:normal;font-variant-caps:normal;font-variant-numeric:normal;font-variant-east-asian:normal;fill:#ffffff;fill-opacity:1;stroke:none;stroke-width:4.55015"
     x="429.29434"
     y="339.25174"
     id="text7066"><tspan
       sodipodi:role="line"
       id="tspan7064"
       x="429.29434"
       y="339.25174"
       style="font-style:normal;font-variant:normal;font-weight:normal;font-stretch:normal;font-size:182.005px;font-family:C059;-inkscape-font-specification:'C059, Normal';font-variant-ligatures:normal;font-variant-caps:normal;font-variant-numeric:normal;font-variant-east-asian:normal;fill:#ffffff;stroke-width:4.55015">FABIANO CORREA</tspan></text>
</svg>
